<?xml version="1.0" encoding="utf-8"?>
<!-- Generator: Adobe Illustrator 25.4.1, SVG Export Plug-In . SVG Version: 6.00 Build 0)  -->
<svg version="1.1" id="Layer_1" xmlns="http://www.w3.org/2000/svg" xmlns:xlink="http://www.w3.org/1999/xlink" x="0px" y="0px"
	 viewBox="0 0 159.46 159.66" style="enable-background:new 0 0 159.46 159.66;" xml:space="preserve">
<style type="text/css">
	.st0{fill:#FFFFFF;}
	.st1{fill:#4393D0;}
	.st2{fill:#1B3158;}
</style>
<path class="st1" d="M159.46,122.47l0,31.31c0,3.05-2.35,5.63-5.4,5.81c-1.12,0.07-2.3,0.07-3.49,0.07
	c-42.43,0-80.68-17.67-107.91-46.02l0.1-0.1C16.31,86.55,0,49.66,0,8.88C0,7.82,0,6.8,0.05,5.73C0.1,2.52,2.72,0,5.87,0h31.31
	c4.95,0,9.47,2.96,11.36,7.57l7.48,17.81c4.13,9.9,1.07,21.31-7.48,27.81l-5.84,4.47c-2.46,1.88-2.86,5.43-0.88,7.8
	c6.83,8.17,21.31,25.34,25.89,29.62l-0.05,0.05c6.69,6.17,19.59,17.05,26.34,22.69c2.38,1.99,5.91,1.58,7.79-0.88l4.46-5.83
	c6.5-8.49,17.91-11.6,27.81-7.43l17.86,7.43C156.5,113.06,159.46,117.52,159.46,122.47z"/>
</svg>
