<?xml version="1.0" encoding="utf-8"?>
<!-- Generator: Adobe Illustrator 25.4.1, SVG Export Plug-In . SVG Version: 6.00 Build 0)  -->
<svg version="1.1" id="Layer_1" xmlns="http://www.w3.org/2000/svg" xmlns:xlink="http://www.w3.org/1999/xlink" x="0px" y="0px"
	 viewBox="0 0 133.71 200.7" style="enable-background:new 0 0 133.71 200.7;" xml:space="preserve">
<style type="text/css">
	.st0{fill:#FFFFFF;}
	.st1{fill:#4393D0;}
	.st2{fill:#1B3158;}
</style>
<path class="st1" d="M116.07,0H17.35C13.32,0,9.79,1.51,6.77,3.53c-5.04,4.03-6.55,9.07-6.55,15.11v97.94c0,28.21-0.5,37.78,0,65.99
	c0,10.58,7.05,18.13,17.12,18.13h98.73c4.03,0,7.56-1.01,10.58-3.53c5.04-4.03,7.05-9.07,7.05-15.11V18.13
	C133.2,7.56,126.15,0,116.07,0z M43.54,10.58h46.34c2.52,0,3.53,1.01,3.53,4.03s-1.01,4.03-3.53,4.03H43.54
	c-2.52,0-3.53-1.01-3.53-4.03S41.02,10.58,43.54,10.58z M66.71,192.89c-6.04,0-11.08-4.53-11.08-10.58
	c0-6.04,5.04-11.08,11.08-11.08c6.04,0,11.08,5.04,11.08,11.08C77.79,188.36,72.76,192.89,66.71,192.89z M120.61,164.94H12.82V29.22
	h107.79V164.94z"/>
</svg>
